<?xml version="1.0" standalone="no"?>
<!DOCTYPE svg PUBLIC "-//W3C//DTD SVG 20010904//EN"
 "http://www.w3.org/TR/2001/REC-SVG-20010904/DTD/svg10.dtd">
<svg version="1.0" xmlns="http://www.w3.org/2000/svg"
 width="500.000000pt" height="500.000000pt" viewBox="0 0 500.000000 500.000000"
 preserveAspectRatio="xMidYMid meet">
<metadata>
Created by potrace 1.11, written by Peter Selinger 2001-2013
</metadata>
<g transform="translate(0.000000,500.000000) scale(0.100000,-0.100000)"
fill="#000000" stroke="none">
<path d="M0 2500 l0 -2500 2500 0 2500 0 0 2500 0 2500 -2500 0 -2500 0 0
-2500z m4500 0 l0 -2000 -2000 0 -2000 0 0 2000 0 2000 2000 0 2000 0 0 -2000z"/>
<path d="M620 2500 l0 -1880 1880 0 1880 0 0 1880 0 1880 -1880 0 -1880 0 0
-1880z m1641 1744 c51 -46 54 -62 54 -324 0 -229 -1 -247 -20 -280 -16 -26
-29 -36 -50 -38 -17 -1 -49 -7 -72 -13 -52 -14 -81 1 -107 54 -13 30 -16 73
-16 277 0 269 5 294 64 332 39 24 116 20 147 -8z m1185 11 c25 -10 40 -26 54
-57 18 -39 20 -67 20 -278 0 -272 -7 -302 -75 -334 -79 -38 -160 2 -184 91
-16 58 -13 449 3 496 32 87 98 117 182 82z m-1906 -135 l0 -140 35 0 35 0 0
140 0 140 50 0 50 0 0 -340 0 -340 -50 0 -50 0 0 150 0 150 -35 0 -35 0 0
-150 0 -150 -55 0 -55 0 0 340 0 340 55 0 55 0 0 -140z m1304 124 c51 -25 76
-77 76 -162 0 -62 -3 -74 -27 -102 -22 -26 -24 -35 -15 -49 41 -54 54 -105 50
-178 -5 -79 -20 -108 -71 -147 -35 -26 -149 -35 -174 -15 -14 12 -15 12 -9 0
7 -10 4 -11 -15 -5 -13 5 -50 9 -82 9 -31 0 -57 1 -57 2 0 10 82 21 106 14
l29 -8 -3 328 -3 329 80 0 c54 0 92 -5 115 -16z m-329 -614 c16 -7 11 -9 -22
-9 -31 -1 -53 -9 -85 -34 -65 -50 -77 -54 -39 -14 54 57 102 76 146 57z m51
-85 c0 -26 -4 -44 -10 -42 -9 3 -10 20 -7 72 1 8 5 15 9 15 4 0 8 -20 8 -45z
m45 -4 c4 -34 3 -41 -10 -39 -11 2 -16 16 -18 46 -2 56 20 51 28 -7z m-333
-46 c-17 -14 -46 -26 -75 -30 -84 -11 -93 -15 -118 -55 -16 -25 -35 -42 -53
-46 -15 -4 -32 -11 -39 -16 -7 -5 -20 -8 -30 -6 -11 3 2 11 34 22 50 17 65 30
99 91 7 11 20 19 30 18 26 -4 114 17 144 33 36 19 38 16 8 -11z m146 -74 c-66
-49 -109 -121 -117 -196 -2 -11 -7 -26 -11 -34 -5 -8 -13 -28 -17 -45 -7 -26
-8 -24 -5 14 8 98 39 184 71 197 8 3 12 9 10 14 -6 8 82 78 99 79 6 0 -8 -13
-30 -29z m-98 -20 c-9 -10 -21 -31 -25 -47 -10 -38 -31 -43 -31 -8 0 36 -11
24 -20 -23 -8 -38 -8 -38 -9 -6 -2 60 31 100 83 102 18 1 18 0 2 -18z m-406 0
c0 -5 -7 -14 -15 -21 -13 -11 -28 -61 -29 -100 -1 -9 -17 -18 -43 -23 -29 -5
-49 -17 -63 -36 -12 -18 -33 -31 -54 -35 -19 -4 -45 -15 -59 -26 -34 -27 -51
-26 -35 1 14 23 82 59 110 59 12 0 23 11 29 28 6 15 24 36 42 47 21 13 35 33
43 60 8 28 17 41 35 46 35 10 39 10 39 0z m281 -123 c-4 -32 -5 -32 -12 -8 -6
21 -7 22 -9 5 -1 -11 -2 -26 -1 -34 2 -7 -3 -10 -9 -6 -6 4 -8 16 -4 27 4 15
3 19 -7 13 -8 -3 -3 3 10 14 32 29 38 26 32 -11z m316 14 c-10 -10 -17 -24
-17 -30 0 -6 -7 -18 -16 -26 -8 -9 -10 -16 -4 -16 7 0 8 -6 1 -18 -6 -10 -6
-24 -1 -32 5 -8 7 -17 4 -21 -12 -21 41 -109 66 -109 6 0 10 -4 10 -10 0 -19
45 -33 104 -32 58 1 60 1 36 -13 -56 -32 -184 -3 -212 48 -10 20 -10 21 5 8
22 -18 21 -9 -3 31 -11 18 -20 43 -20 55 0 28 -17 39 -23 16 -4 -15 -5 -15 -6
2 -2 38 20 96 51 130 16 19 33 35 36 35 3 0 -2 -8 -11 -18z m191 2 c31 -21 27
-70 -8 -93 -17 -11 -22 -12 -16 -2 19 31 14 71 -12 91 -22 18 -22 20 -6 20 11
0 30 -7 42 -16z m-111 -107 c9 -9 30 -21 47 -26 30 -9 30 -9 5 -10 -15 -1 -38
8 -53 20 -21 17 -26 28 -24 62 1 41 1 41 5 7 3 -19 12 -43 20 -53z m-450 26
c-3 -10 -5 -2 -5 17 0 19 2 27 5 18 2 -10 2 -26 0 -35z m-50 -30 c-2 -16 -4
-5 -4 22 0 28 2 40 4 28 2 -13 2 -35 0 -50z m147 21 c-15 -52 -32 -77 -45 -68
-5 3 -9 0 -9 -6 0 -6 -4 -8 -10 -5 -5 3 -10 3 -10 -2 0 -4 -22 -18 -50 -31
-27 -13 -50 -27 -50 -32 0 -6 -9 -10 -19 -10 -11 0 -23 -4 -26 -10 -8 -13 -25
-13 -25 0 0 9 239 208 252 209 3 1 0 -20 -8 -45z m441 36 c-3 -5 -10 -10 -16
-10 -5 0 -9 5 -9 10 0 6 7 10 16 10 8 0 12 -4 9 -10z m90 -40 c-6 -9 -9 -9
-16 1 -10 17 0 34 13 21 6 -6 7 -16 3 -22z m15 -55 c0 -1 -7 -8 -15 -15 -13
-10 -15 -9 -15 8 0 15 5 20 15 16 8 -4 15 -7 15 -9z m-970 -65 c-61 -55 -86
-72 -78 -51 5 14 133 120 138 115 2 -3 -25 -32 -60 -64z m94 -212 c10 -139 18
-260 19 -268 1 -10 -13 -17 -46 -23 -26 -5 -50 -7 -53 -4 -4 3 -15 108 -25
233 l-20 227 48 43 c26 24 51 43 54 44 3 0 14 -114 23 -252z m543 230 c-3 -8
-6 -5 -6 6 -1 11 2 17 5 13 3 -3 4 -12 1 -19z m-170 -20 c-3 -7 -5 -2 -5 12 0
14 2 19 5 13 2 -7 2 -19 0 -25z m-27 -33 c0 -3 -33 -21 -72 -39 -59 -27 -151
-70 -200 -94 -5 -2 -8 1 -8 7 0 6 7 11 15 11 8 0 15 5 15 10 0 6 8 10 19 10
10 0 24 7 31 15 7 8 20 15 30 15 9 0 29 9 44 21 14 11 30 17 36 14 5 -3 10 -2
10 2 0 5 12 14 28 20 31 12 52 15 52 8z m19 -39 c-13 -13 -283 -126 -293 -122
-6 2 -3 5 7 5 9 1 17 6 17 11 0 5 4 9 8 8 8 -3 67 22 177 74 51 24 98 37 84
24z m67 -23 c17 -16 45 -39 63 -53 19 -14 40 -30 46 -37 7 -7 16 -9 19 -5 4 3
11 0 15 -7 11 -18 49 -24 141 -24 66 1 71 -1 40 -9 -56 -16 -159 -5 -214 22
-50 24 -115 81 -136 119 -14 28 -9 26 26 -6z m-602 -65 c9 -54 26 -274 24
-310 0 -18 -6 17 -13 77 -7 62 -12 88 -12 60 -1 -27 2 -79 6 -115 5 -50 9 -64
21 -62 10 2 12 0 5 -6 -5 -6 -40 -13 -76 -17 l-66 -7 -7 108 c-4 60 -9 134
-12 165 l-6 57 59 40 c32 23 61 41 65 41 4 1 9 -14 12 -31z m418 -54 c-28 -19
-28 -48 -1 -67 20 -15 20 -15 -4 -13 -14 0 -23 6 -20 13 5 13 -34 6 -43 -8 -7
-11 -34 -12 -34 -1 0 4 16 14 35 21 19 7 35 18 35 26 0 17 27 45 43 45 6 0 1
-7 -11 -16z m-586 -39 c0 -43 -8 -56 -21 -35 -3 6 0 10 7 10 9 0 9 3 -2 10
-12 8 -12 10 -1 10 8 0 12 3 8 6 -3 3 -14 1 -24 -5 -14 -8 -15 -11 -3 -11 9 0
6 -6 -9 -14 -21 -12 -21 -14 -6 -20 10 -3 15 -9 12 -13 -4 -3 -13 0 -22 7 -9
7 -18 11 -21 8 -6 -7 63 -48 79 -48 7 1 1 7 -12 14 -21 12 -21 14 -6 20 10 3
20 4 23 1 3 -3 -1 -5 -9 -5 -12 0 -12 -2 1 -10 8 -5 15 -20 15 -33 2 -23 0
-24 -29 -15 -17 6 -45 21 -63 34 -37 28 -51 31 -32 7 8 -9 41 -29 74 -45 33
-15 49 -25 36 -22 -52 14 -87 34 -121 70 -19 21 -26 32 -16 24 18 -14 19 -13
13 2 -7 20 27 45 38 28 3 -5 11 -10 17 -10 7 0 7 5 -1 14 -9 11 -3 19 31 39
24 15 43 26 43 27 0 0 1 -20 1 -45z m631 19 c8 -21 -13 -42 -28 -27 -13 13 -5
43 11 43 6 0 13 -7 17 -16z m74 -37 c-10 -9 -11 -8 -5 6 3 10 9 15 12 12 3 -3
0 -11 -7 -18z m-726 -27 c3 -5 2 -10 -4 -10 -5 0 -13 5 -16 10 -3 6 -2 10 4
10 5 0 13 -4 16 -10z m-50 -92 c17 -9 44 -19 60 -23 17 -4 25 -9 18 -12 -6 -2
-28 3 -48 11 -42 18 -64 21 -49 7 5 -5 32 -16 59 -24 28 -9 42 -16 33 -16 -10
-1 -41 8 -71 19 -50 19 -82 44 -102 80 -8 13 -7 13 8 1 9 -7 17 -9 17 -3 0 15
-26 33 -35 24 -5 -4 -5 -1 0 6 5 11 16 5 44 -21 20 -19 50 -41 66 -49z m745
58 c0 -8 -9 -18 -21 -21 -28 -9 -59 -63 -59 -102 0 -20 -5 -33 -12 -33 -10 0
-10 -2 -1 -8 7 -4 13 -23 15 -41 1 -18 6 -35 10 -37 13 -9 9 -24 -7 -24 -19 0
-30 41 -30 117 0 68 20 108 68 131 15 7 27 17 27 23 0 5 2 9 5 9 3 0 5 -6 5
-14z m665 -32 c-24 -22 -27 -30 -22 -72 4 -35 12 -52 34 -70 l28 -24 -31 16
c-36 18 -59 64 -50 102 7 25 48 74 62 74 4 0 -6 -12 -21 -26z m-1452 -61 c18
-9 57 -22 87 -30 l55 -13 -55 6 c-67 6 -129 41 -153 86 l-19 33 27 -33 c15
-18 41 -40 58 -49z m-448 -83 l-150 -150 148 -148 c81 -81 147 -151 147 -155
0 -4 -48 -7 -108 -7 l-107 0 -155 155 -155 155 150 150 150 150 115 0 115 0
-150 -150z m363 119 c-3 -8 -7 -3 -11 10 -4 17 -3 21 5 13 5 -5 8 -16 6 -23z
m883 14 c-45 -38 -42 -124 6 -152 10 -6 13 -11 7 -11 -6 0 -23 12 -38 26 -35
36 -36 91 -1 128 13 14 29 26 36 26 6 0 2 -8 -10 -17z m997 -136 l152 -152
-153 -153 -154 -153 -44 3 -44 3 -7 60 -8 59 41 42 c28 28 56 46 85 53 48 12
45 6 44 105 -1 49 -5 56 -36 56 -24 0 -25 2 -23 53 2 40 0 52 -11 52 -11 0
-14 -11 -12 -45 l3 -45 -32 32 -32 31 22 27 c25 32 26 59 7 98 -15 27 -15 27
17 27 28 0 51 -19 185 -153z m454 6 c82 -81 148 -152 148 -158 0 -6 -66 -77
-148 -158 l-147 -147 -115 0 -115 0 148 148 c81 81 147 152 147 157 0 5 -66
76 -147 157 l-148 148 115 0 115 0 147 -147z m455 -5 l153 -153 -152 -152
-153 -153 -115 0 -115 0 154 154 154 154 -148 151 -148 151 109 0 109 0 152
-152z m-1329 17 c0 -22 -3 -19 -9 15 -10 60 -9 108 2 55 4 -22 8 -53 7 -70z
m-340 70 c-3 -3 -9 2 -12 12 -6 14 -5 15 5 6 7 -7 10 -15 7 -18z m-1083 -5
c20 -22 102 -50 146 -50 15 0 31 -4 34 -10 6 -10 -20 -7 -108 12 -43 9 -130
68 -101 68 6 0 19 -9 29 -20z m713 -32 c-2 -17 -10 -23 -28 -24 -14 -1 -34 -4
-45 -7 -11 -4 -27 -2 -35 3 -22 14 0 31 46 37 22 3 41 7 43 9 12 11 22 1 19
-18z m-704 -13 c33 -17 66 -25 100 -25 28 0 57 -4 65 -9 7 -5 -18 -6 -60 -4
-75 5 -159 33 -159 52 0 14 -3 15 54 -14z m-69 -5 c3 -5 -3 -10 -15 -10 -12 0
-18 5 -15 10 3 6 10 10 15 10 5 0 12 -4 15 -10z m-75 -10 c0 -5 -5 -10 -11
-10 -5 0 -7 5 -4 10 3 6 8 10 11 10 2 0 4 -4 4 -10z m1249 -40 c0 -9 -4 -8 -9
5 -5 11 -9 27 -9 35 0 9 4 8 9 -5 5 -11 9 -27 9 -35z m-526 23 c-7 -2 -19 -2
-25 0 -7 3 -2 5 12 5 14 0 19 -2 13 -5z m-701 -96 c52 -21 56 -28 32 -48 -13
-11 4 -32 138 -166 l153 -153 -110 0 -110 0 -155 155 -155 155 70 70 70 71 9
-32 c8 -25 20 -36 58 -52z m237 71 c52 -1 42 -3 -49 -9 -63 -5 -134 -11 -158
-14 -24 -3 -51 -1 -60 5 -13 7 -3 10 38 11 30 0 66 5 80 9 14 5 38 7 54 4 16
-2 58 -5 95 -6z m344 5 c-7 -2 -19 -2 -25 0 -7 3 -2 5 12 5 14 0 19 -2 13 -5z
m108 0 c-19 -4 -21 -7 -10 -14 11 -7 11 -9 -3 -9 -18 0 -23 11 -11 23 3 4 16
6 27 6 18 -2 17 -2 -3 -6z m-58 -10 c-7 -2 -19 -2 -25 0 -7 3 -2 5 12 5 14 0
19 -2 13 -5z m-23 -20 c2 -2 -13 -3 -34 -1 -20 1 -40 6 -43 11 -5 8 67 -1 77
-10z m130 7 c0 -5 -2 -10 -4 -10 -3 0 -8 5 -11 10 -3 6 -1 10 4 10 6 0 11 -4
11 -10z m83 3 c-13 -2 -35 -2 -50 0 -16 2 -5 4 22 4 28 0 40 -2 28 -4z m733
-70 c-13 -14 -24 13 -18 47 l6 35 9 -38 c5 -21 6 -41 3 -44z m-1313 56 c-34
-4 -77 -12 -97 -17 -20 -6 -36 -7 -36 -1 0 14 61 27 130 27 l65 -1 -62 -8z
m995 -98 c-10 -31 -20 -63 -21 -71 -1 -8 -6 -21 -10 -28 -5 -7 -5 -22 -2 -35
5 -16 4 -18 -3 -8 -8 11 -13 7 -26 -17 -9 -17 -38 -66 -66 -109 -40 -62 -50
-87 -50 -120 0 -34 4 -43 18 -44 9 0 12 -2 7 -5 -6 -2 -30 3 -55 11 -34 11
-37 13 -11 9 32 -6 33 -5 27 22 -10 51 -16 191 -6 169 5 -11 9 -31 9 -44 1
-24 1 -24 17 -5 8 10 12 13 8 5 -5 -10 -3 -12 5 -7 7 5 10 15 7 23 -3 8 -2 12
3 9 12 -8 33 19 72 91 32 57 33 63 21 97 -10 28 -11 44 -1 76 7 22 15 40 19
40 4 0 2 -17 -5 -37 -12 -33 -11 -38 2 -41 26 -6 37 16 37 73 0 49 1 52 11 28
9 -21 7 -39 -7 -82z m-953 80 c-26 -10 -132 -24 -124 -16 8 7 86 23 119 23 22
1 23 0 5 -7z m315 0 c0 -4 -13 -8 -30 -9 -16 0 -30 3 -30 7 0 4 14 8 30 9 17
0 30 -3 30 -7z m213 0 c47 -1 49 -21 2 -21 -19 0 -35 -3 -35 -7 0 -5 -11 -21
-25 -38 -14 -16 -22 -22 -19 -12 8 23 -3 22 -15 -1 -7 -13 -6 -19 2 -20 102
-15 122 -34 30 -30 -53 3 -57 1 -63 -22 -6 -24 -6 -24 -12 -3 -3 12 -1 27 6
34 8 9 8 10 -1 5 -6 -3 -14 -2 -17 3 -3 5 -29 12 -56 16 -27 4 -52 11 -55 15
-3 5 12 6 32 2 80 -14 114 -9 137 21 18 24 19 29 6 37 -13 9 -13 11 -1 19 7 5
21 7 30 6 9 -2 33 -4 54 -4z m-518 -21 c-11 -5 -31 -8 -45 -8 l-25 0 25 8 c14
4 34 8 45 8 l20 1 -20 -9z m1022 4 c-3 -3 -12 -4 -19 -1 -8 3 -5 6 6 6 11 1
17 -2 13 -5z m50 0 c-3 -3 -12 -4 -19 -1 -8 3 -5 6 6 6 11 1 17 -2 13 -5z m40
0 c-3 -3 -12 -4 -19 -1 -8 3 -5 6 6 6 11 1 17 -2 13 -5z m50 0 c-3 -3 -12 -4
-19 -1 -8 3 -5 6 6 6 11 1 17 -2 13 -5z m50 0 c-3 -3 -12 -4 -19 -1 -8 3 -5 6
6 6 11 1 17 -2 13 -5z m-606 -35 c-21 -8 -23 -14 -18 -54 4 -26 2 -45 -4 -45
-10 0 -11 1 -26 68 l-10 42 41 -1 c36 0 38 -1 17 -10z m-453 -80 c-2 -33 -7
-44 -21 -45 -14 -2 -14 -1 -1 3 12 4 15 15 12 53 -1 27 1 45 5 41 5 -5 7 -28
5 -52z m962 44 c-19 -3 -45 -14 -58 -26 -20 -18 -24 -19 -32 -7 -8 12 -10 12
-10 -4 0 -11 -3 -17 -6 -13 -4 3 -4 18 0 32 6 24 9 25 74 23 38 -1 52 -3 32
-5z m-860 -70 c0 -37 -9 -63 -21 -63 -6 0 -5 10 2 21 6 12 9 40 6 62 -4 27 -2
36 4 26 5 -7 9 -28 9 -46z m473 50 c-7 -2 -13 -9 -13 -14 0 -6 5 -7 10 -4 6 3
10 1 10 -4 0 -6 -7 -11 -15 -11 -8 0 -15 9 -15 20 0 13 6 20 18 19 10 0 12 -3
5 -6z m60 0 c-7 -2 -13 -9 -13 -15 0 -6 7 -7 16 -4 8 3 12 2 9 -4 -11 -18 -35
-11 -35 10 0 13 6 20 18 19 10 0 12 -3 5 -6z m77 -8 c9 -11 9 -22 0 -49 -6
-20 -8 -41 -4 -48 4 -7 3 -9 -1 -5 -5 4 -15 -3 -22 -15 l-14 -23 8 25 c9 30 8
55 -2 98 -6 25 -4 32 8 32 8 0 20 -7 27 -15z m114 7 c3 -5 1 -30 -3 -58 -7
-38 -9 -42 -10 -17 0 17 -5 35 -11 38 -15 9 -12 45 4 45 8 0 17 -4 20 -8z
m236 -9 c0 -10 -5 -25 -11 -33 -8 -12 -9 -9 -5 12 4 16 1 28 -7 31 -7 3 -5 6
6 6 10 1 17 -6 17 -16z m40 6 c0 -5 -4 -7 -10 -4 -5 3 -10 2 -10 -4 0 -5 4
-11 10 -13 5 -1 6 -14 3 -28 l-7 -25 -7 25 c-12 41 -10 60 6 60 8 0 15 -5 15
-11z m30 -4 c-7 -9 -8 -15 -2 -15 5 0 12 7 16 15 9 25 46 19 46 -7 0 -19 -2
-20 -10 -8 -8 12 -10 12 -10 1 0 -8 -3 -11 -7 -8 -3 4 -12 2 -19 -4 -17 -14
-34 -3 -34 22 0 11 7 19 16 19 14 0 14 -3 4 -15z m103 2 c3 -8 -3 -13 -14 -13
-11 0 -19 6 -19 13 0 7 6 13 14 13 8 0 16 -6 19 -13z m-1099 -68 c-7 -14 -9
-7 -10 28 -1 43 0 45 9 20 5 -17 6 -37 1 -48z m83 45 c0 -8 -4 -14 -9 -14 -4
0 -8 -18 -8 -39 0 -22 -3 -46 -6 -55 -7 -18 -39 -22 -49 -6 -3 5 0 7 9 4 18
-7 36 24 36 61 0 14 -7 28 -15 31 -10 4 -11 9 -3 18 16 17 45 17 45 0z m808 6
c3 -5 2 -10 -4 -10 -5 0 -13 5 -16 10 -3 6 -2 10 4 10 5 0 13 -4 16 -10z
m-984 -37 c-12 -20 -14 -14 -5 12 4 9 9 14 11 11 3 -2 0 -13 -6 -23z m848 -23
c0 -9 -4 -8 -9 5 -5 11 -9 27 -9 35 0 9 4 8 9 -5 5 -11 9 -27 9 -35z m14 -61
c-4 -4 -6 20 -3 54 l5 62 3 -54 c2 -30 0 -58 -5 -62z m-646 39 c-2 -13 -4 -3
-4 22 0 25 2 35 4 23 2 -13 2 -33 0 -45z m63 -11 c0 -77 -30 -111 -61 -69 -11
14 -11 15 1 5 20 -18 35 -16 20 2 -11 13 -10 14 3 10 20 -8 31 38 22 92 -5 28
-4 34 4 23 6 -8 11 -37 11 -63z m-240 -22 c164 -68 240 -111 240 -137 0 -4
-48 -8 -107 -8 l-106 0 -116 116 c-64 64 -111 114 -106 111 6 -3 93 -40 195
-82z m873 23 c3 -33 1 -48 -7 -48 -14 0 -21 83 -10 102 9 14 11 8 17 -54z m94
30 c-3 -8 -6 -5 -6 6 -1 11 2 17 5 13 3 -3 4 -12 1 -19z m123 -193 c6 -44 14
-90 17 -102 3 -13 1 -23 -4 -23 -9 0 -55 295 -52 331 2 18 24 -103 39 -206z
m7 193 c-3 -8 -6 -5 -6 6 -1 11 2 17 5 13 3 -3 4 -12 1 -19z m-840 -55 c-2
-16 -4 -5 -4 22 0 28 2 40 4 28 2 -13 2 -35 0 -50z m30 30 c-3 -10 -5 -4 -5
12 0 17 2 24 5 18 2 -7 2 -21 0 -30z m63 4 c0 -16 3 -18 9 -9 5 9 10 -9 14
-47 5 -61 31 -121 55 -129 22 -7 45 67 38 125 -4 33 -2 53 4 53 5 0 10 -7 10
-15 0 -8 5 -15 10 -15 6 0 10 5 10 12 0 6 3 8 7 5 3 -4 1 -24 -5 -44 -6 -21
-15 -57 -22 -80 -15 -58 -42 -72 -74 -40 -14 14 -28 41 -31 61 -9 44 -17 45
-32 6 -6 -16 -18 -30 -26 -30 -19 0 -57 47 -57 69 1 9 7 2 14 -15 15 -33 45
-62 33 -31 -14 35 -17 51 -6 30 7 -13 16 -23 20 -23 13 0 21 60 14 107 -4 31
-3 43 4 38 6 -3 11 -16 11 -28z m716 -282 c4 -27 3 -37 -4 -30 -9 9 -53 290
-51 325 1 13 36 -175 55 -295z m-902 255 c4 -25 3 -31 -4 -20 -5 8 -10 26 -10
39 0 32 6 24 14 -19z m260 -115 c10 -15 13 -24 6 -20 -22 13 -40 73 -39 127
l2 53 7 -67 c3 -36 14 -78 24 -93z m727 113 c-3 -21 -6 -26 -9 -15 -3 17 3 47
11 47 2 0 1 -15 -2 -32z m-404 -25 c-3 -10 -5 -2 -5 17 0 19 2 27 5 18 2 -10
2 -26 0 -35z m230 10 c-3 -10 -5 -4 -5 12 0 17 2 24 5 18 2 -7 2 -21 0 -30z
m-414 12 c-3 -9 -8 -14 -10 -11 -3 3 -2 9 2 15 9 16 15 13 8 -4z m571 -150
c13 -83 13 -105 2 -94 -5 5 -37 236 -35 254 2 18 19 -66 33 -160z m-847 123
c-3 -7 -5 -2 -5 12 0 14 2 19 5 13 2 -7 2 -19 0 -25z m400 -15 c-3 -10 -5 -4
-5 12 0 17 2 24 5 18 2 -7 2 -21 0 -30z m-109 2 c-6 -14 -13 -23 -15 -21 -5 5
15 46 22 46 3 0 -1 -11 -7 -25z m319 -7 c-3 -7 -5 -2 -5 12 0 14 2 19 5 13 2
-7 2 -19 0 -25z m117 -137 c16 -91 20 -129 11 -120 -11 12 -24 88 -41 234 -8
75 6 19 30 -114z m160 27 c4 -44 3 -65 -3 -53 -4 11 -11 56 -14 100 -4 50 -3
70 2 53 5 -14 12 -59 15 -100z m-345 90 c0 -13 9 -72 20 -133 22 -115 25 -153
15 -142 -9 8 -45 219 -39 225 2 3 0 13 -5 23 -6 9 -7 25 -4 33 9 22 14 20 13
-6z m-189 -9 c0 -6 -4 -7 -10 -4 -5 3 -10 11 -10 16 0 6 5 7 10 4 6 -3 10 -11
10 -16z m130 -12 c-1 -12 6 -58 14 -102 16 -83 20 -142 10 -133 -5 6 -43 228
-44 256 0 7 4 10 10 7 5 -3 10 -16 10 -28z m-48 -100 c15 -102 16 -128 4 -116
-5 5 -36 202 -36 227 0 9 3 12 8 8 4 -4 15 -58 24 -119z m231 103 c-3 -11 -7
-20 -9 -20 -2 0 -4 9 -4 20 0 11 4 20 9 20 5 0 7 -9 4 -20z m-19 -129 l23
-115 49 -25 c84 -44 89 -65 89 -331 0 -200 -2 -229 -19 -263 -26 -53 -64 -70
-168 -75 l-88 -4 0 331 c0 258 3 331 13 331 6 0 23 3 37 6 20 4 22 3 10 -5
-12 -9 -10 -11 11 -11 25 0 106 29 84 30 -27 1 -37 25 -55 131 -18 105 -25
170 -13 129 2 -8 14 -66 27 -129z m-280 54 c4 -36 9 -79 13 -95 3 -17 1 -30
-4 -30 -6 0 -13 24 -17 53 -4 28 -9 71 -12 95 -4 24 -2 42 3 42 6 0 13 -29 17
-65z m-59 -44 l7 -79 35 -7 c19 -3 33 -8 30 -11 -2 -3 -26 1 -53 7 -27 7 -44
14 -38 16 7 2 8 22 3 56 -10 73 -10 97 0 97 5 0 12 -36 16 -79z m371 70 c-4
-5 1 -38 9 -73 17 -71 20 -123 6 -98 -5 8 -12 38 -15 65 -4 28 -10 65 -13 83
-3 21 -1 32 6 32 7 0 10 -4 7 -9z m-241 -181 c13 -5 14 -9 5 -9 -8 0 -24 4
-35 9 -13 5 -14 9 -5 9 8 0 24 -4 35 -9z m52 -16 c-3 -3 -12 -4 -19 -1 -8 3
-5 6 6 6 11 1 17 -2 13 -5z m-947 -19 c42 -22 62 -68 68 -152 l5 -73 -51 0
-51 0 -3 67 c-2 56 -6 68 -21 71 -44 9 -47 -8 -47 -242 0 -239 5 -265 48 -252
18 6 21 16 24 74 l3 67 45 0 45 0 3 -60 c7 -149 -117 -234 -217 -149 -17 14
-35 42 -41 62 -5 20 -10 137 -10 259 0 250 8 290 64 324 37 23 96 24 136 4z
m611 -21 c16 -15 34 -44 39 -63 13 -47 13 -455 0 -502 -30 -109 -178 -132
-235 -36 -18 29 -20 55 -23 274 -3 225 -2 245 17 288 24 55 65 77 129 71 30
-3 52 -12 73 -32z m406 20 c-3 -3 -12 -4 -19 -1 -8 3 -5 6 6 6 11 1 17 -2 13
-5z m823 -44 l0 -50 -65 0 -65 0 0 -90 0 -90 45 0 45 0 0 -55 0 -55 -45 0 -45
0 0 -95 0 -95 65 0 65 0 0 -50 0 -50 -115 0 -115 0 0 340 0 340 115 0 115 0 0
-50z m230 -910 c9 -35 2 -50 -26 -50 -21 0 -24 4 -24 41 0 36 2 40 22 37 14
-2 25 -12 28 -28z m86 -1 c1 -14 4 -31 8 -38 4 -6 2 -11 -4 -11 -6 0 -13 7
-16 15 -8 20 -21 19 -27 -2 -3 -10 -5 1 -6 25 -1 40 1 43 22 40 16 -2 22 -10
23 -29z m104 26 c0 -3 -10 -10 -22 -15 -18 -7 -19 -9 -5 -9 9 -1 17 -5 17 -11
0 -5 -8 -10 -17 -11 -14 0 -13 -2 5 -9 29 -12 28 -20 -3 -20 -22 0 -25 4 -25
40 0 36 3 40 25 40 14 0 25 -2 25 -5z m48 -22 l10 -28 7 28 c8 32 28 31 33 -1
4 -27 22 -19 22 9 0 10 5 19 10 19 13 0 13 -10 -1 -49 -13 -37 -26 -40 -39 -8
l-9 22 -7 -22 c-10 -36 -31 -27 -42 17 -11 45 1 55 16 13z m147 -13 c0 -22 -4
-40 -10 -40 -6 0 -10 18 -10 40 0 22 4 40 10 40 6 0 10 -18 10 -40z m65 20
c14 -26 28 -25 33 3 2 12 5 3 6 -20 1 -49 -3 -52 -30 -20 l-18 22 -1 -22 c0
-13 -4 -23 -10 -23 -5 0 -10 18 -10 40 0 43 13 52 30 20z m135 10 c4 -6 -5
-10 -19 -10 -19 0 -26 -5 -26 -20 0 -14 7 -20 21 -20 18 0 19 2 9 15 -10 12
-10 15 4 15 21 0 21 -39 0 -47 -36 -13 -68 33 -44 62 14 17 46 20 55 5z m-160
-159 c3 -5 -5 -11 -17 -13 -30 -4 -30 -33 -1 -33 31 -1 39 -12 13 -20 -24 -8
-50 10 -50 34 0 31 40 55 55 32z m109 -7 c9 -8 16 -19 16 -24 0 -13 -30 -40
-44 -40 -17 0 -36 21 -36 40 0 19 19 40 36 40 7 0 20 -7 28 -16z"/>
<path d="M2156 4154 c-8 -20 -8 -448 0 -468 10 -25 43 -19 54 10 6 14 10 115
10 224 0 109 -4 210 -10 224 -11 29 -44 35 -54 10z"/>
<path d="M3360 4144 c-6 -14 -10 -115 -10 -224 0 -109 4 -210 10 -224 11 -29
44 -35 54 -10 3 9 6 114 6 234 0 120 -3 225 -6 234 -10 25 -43 19 -54 -10z"/>
<path d="M2750 4070 c0 -96 5 -104 47 -75 26 18 38 80 23 120 -12 33 -26 45
-52 45 -16 0 -18 -11 -18 -90z"/>
<path d="M2750 3785 c0 -95 2 -105 18 -105 37 0 57 37 57 105 0 68 -20 105
-57 105 -16 0 -18 -10 -18 -105z"/>
<path d="M1832 3057 c-31 -32 -32 -36 -26 -90 l7 -56 39 20 39 20 -3 66 c-2
37 -8 68 -13 70 -6 2 -25 -12 -43 -30z"/>
<path d="M1850 2905 c-25 -13 -42 -24 -38 -25 16 -1 88 33 88 41 0 11 3 12
-50 -16z"/>
<path d="M1880 2892 c-8 -3 -25 -9 -38 -13 l-24 -9 21 -34 c12 -19 35 -60 51
-92 l29 -58 -6 59 c-11 126 -17 152 -33 147z"/>
<path d="M1733 2845 c0 -27 2 -38 4 -22 2 15 2 37 0 50 -2 12 -4 0 -4 -28z"/>
<path d="M1545 2840 c-3 -6 1 -7 9 -4 18 7 21 14 7 14 -6 0 -13 -4 -16 -10z"/>
<path d="M1512 2823 c-6 -2 -10 -9 -6 -14 8 -14 21 -11 21 6 0 8 -1 15 -1 14
-1 0 -7 -3 -14 -6z"/>
<path d="M1465 2770 c25 -27 92 -63 108 -56 7 2 5 5 -4 5 -9 1 -41 17 -70 38
-37 24 -48 29 -34 13z"/>
<path d="M1430 2711 c0 -12 39 -35 46 -28 3 2 -7 12 -21 21 -14 9 -25 12 -25
7z"/>
<path d="M2490 2380 c0 -5 5 -10 10 -10 6 0 10 5 10 10 0 6 -4 10 -10 10 -5 0
-10 -4 -10 -10z"/>
<path d="M2050 2460 c-6 -11 -8 -20 -6 -20 3 0 10 9 16 20 6 11 8 20 6 20 -3
0 -10 -9 -16 -20z"/>
<path d="M2430 2380 c0 -5 5 -10 10 -10 6 0 10 5 10 10 0 6 -4 10 -10 10 -5 0
-10 -4 -10 -10z"/>
<path d="M2550 2380 c0 -5 5 -10 10 -10 6 0 10 5 10 10 0 6 -4 10 -10 10 -5 0
-10 -4 -10 -10z"/>
<path d="M2758 1570 c2 -197 5 -240 17 -240 47 0 58 58 53 282 -3 175 -9 198
-52 198 -21 0 -21 -1 -18 -240z"/>
<path d="M2161 1806 c-8 -9 -11 -82 -9 -241 3 -207 5 -229 21 -239 15 -9 21
-7 33 8 11 16 14 63 14 234 0 128 -4 221 -10 233 -12 22 -33 25 -49 5z"/>
<path d="M3698 953 c7 -3 16 -2 19 1 4 3 -2 6 -13 5 -11 0 -14 -3 -6 -6z"/>
<path d="M3698 923 c7 -3 16 -2 19 1 4 3 -2 6 -13 5 -11 0 -14 -3 -6 -6z"/>
<path d="M4215 790 c-4 -7 -3 -16 3 -22 14 -14 45 -2 40 15 -6 16 -34 21 -43
7z"/>
</g>
</svg>
